<?xml version="1.0" encoding="UTF-8"?>
<!DOCTYPE svg PUBLIC "-//W3C//DTD SVG 1.1//EN" "http://www.w3.org/Graphics/SVG/1.1/DTD/svg11.dtd">
<!-- Creator: CorelDRAW -->
<svg xmlns="http://www.w3.org/2000/svg" xml:space="preserve" width="59.7578mm" height="44.702mm" version="1.1" style="shape-rendering:geometricPrecision; text-rendering:geometricPrecision; image-rendering:optimizeQuality; fill-rule:evenodd; clip-rule:evenodd"
viewBox="0 0 1103.26 825.3"
 xmlns:xlink="http://www.w3.org/1999/xlink"
 xmlns:xodm="http://www.corel.com/coreldraw/odm/2003">
 <defs>
  <style type="text/css">
   <![CDATA[
    .fil3 {fill:#50AAD8;fill-rule:nonzero}
    .fil4 {fill:#2B579D;fill-rule:nonzero}
    .fil0 {fill:url(#id0)}
    .fil2 {fill:url(#id1)}
    .fil1 {fill:url(#id2)}
   ]]>
  </style>
  <linearGradient id="id0" gradientUnits="userSpaceOnUse" x1="110.68" y1="671.51" x2="682.61" y2="121.77">
   <stop offset="0" style="stop-opacity:1; stop-color:#2B569C"/>
   <stop offset="1" style="stop-opacity:1; stop-color:#5FCBEF"/>
  </linearGradient>
  <linearGradient id="id1" gradientUnits="userSpaceOnUse" x1="362.36" y1="429.59" x2="682.6" y2="121.77">
   <stop offset="0" style="stop-opacity:1; stop-color:#5FCBEF"/>
   <stop offset="1" style="stop-opacity:1; stop-color:#2B569C"/>
  </linearGradient>
  <linearGradient id="id2" gradientUnits="userSpaceOnUse" xlink:href="#id1" x1="194.04" y1="593.57" x2="371.92" y2="422.59">
  </linearGradient>
 </defs>
 <g id="Capa_x0020_1">
  <metadata id="CorelCorpID_0Corel-Layer"/>
  <g id="_2205473759168">
   <path class="fil0" d="M396.65 599.69c-112.14,0 -203.04,-90.91 -203.04,-203.04 0,-112.14 90.9,-203.05 203.04,-203.05 112.14,0 203.04,90.91 203.04,203.05 0,112.14 -90.9,203.04 -203.04,203.04zm0 -599.69c-219.06,0 -396.65,177.59 -396.65,396.65 0,219.05 177.59,396.65 396.65,396.65 219.06,0 396.64,-177.59 396.64,-396.65 0,-219.06 -177.58,-396.65 -396.64,-396.65z"/>
   <path class="fil1" d="M137.38 452.86c0,112.14 90.91,203.04 203.04,203.04 70.45,0 132.49,-35.89 168.91,-90.35 -32.24,21.55 -70.98,34.13 -112.68,34.13 -112.14,0 -203.04,-90.91 -203.04,-203.04 0,-41.7 12.58,-80.44 34.13,-112.69 -54.48,36.41 -90.36,98.46 -90.36,168.91z"/>
   <path class="fil2" d="M396.65 0c-123.85,0 -234.41,56.78 -307.16,145.72 68.37,-55.93 155.72,-89.5 250.93,-89.5 219.07,0 396.65,177.58 396.65,396.65 0,95.21 -33.58,182.56 -89.5,250.94 88.94,-72.75 145.71,-183.31 145.71,-307.16 0,-219.06 -177.58,-396.65 -396.64,-396.65z"/>
   <path class="fil3" d="M501.31 585.65c-16.3,33.62 -35.45,64.41 -57.46,92.35 -21.73,27.78 -45.46,51.93 -70.32,72.14 -25.16,20.21 -50.88,36 -77.75,47.2 -80.59,33.96 -142.44,15.54 -171.23,-36.31 -19.72,-35.52 -29.44,-87.92 -29.44,-157.38 0,-35.04 0,-65.99 0,-92.82 0,-26.68 0.29,-53.51 0.86,-80.35 0.58,-26.84 0.58,-35.04 -0.29,-24.94 -0.86,10.26 -1.42,19.41 -1.99,27.78 0,2.05 -0.29,5.68 -0.86,10.73 -0.29,5.21 1.71,3 6.29,-6.47 4.57,-9.47 10.57,-19.26 18.28,-29.52 7.44,-10.26 17.15,-19.57 28.87,-27.94 40.32,-28.78 129.33,-40.28 182.08,-20.05 14.29,5.37 21.44,12.47 21.44,21.47l-67.74 268.84 10.86 -0.47c24.86,-31.42 47.74,-63.31 68.89,-95.51 20.87,-32.2 39.16,-58.72 54.59,-79.4 15.15,-20.68 30.02,-38.68 44.31,-53.99 14.29,-15.47 29.73,-28.26 46.59,-38.52 16.57,-10.11 35.44,-17.68 56.6,-22.89 20.87,-5.05 45.73,-7.57 74.88,-7.57 24.59,0 43.45,2.68 56.6,8.04 12.87,5.37 19.45,12.63 19.45,21.47l-77.76 268.84 12.58 -0.47 208.39 -265.52c6.86,-8.68 21.44,-16.26 43.73,-22.89 22.29,-6.62 48.89,-9.94 79.47,-9.94 31.72,0 57.46,3.63 77.18,10.89 19.43,7.26 29.15,16.57 29.15,27.94 0,8.69 -2.57,17.84 -8,27.78 -19.89,37.87 -53.97,67.24 -82.03,102.61 -13.16,16.73 -23.44,29.04 -31.44,37.1 -9.44,9.16 -17.73,17.84 -25.15,25.89 -51.21,46.4 -163.89,139.22 -228.4,183.27 -22,14.84 -44.02,26.36 -66.31,34.73 -22,8.37 -44.31,12.47 -66.61,12.47 -7.71,0 -14.57,-3.31 -20.29,-9.95 -5.72,-6.63 -10.57,-15.62 -14.58,-26.84 -3.99,-11.2 -7.14,-24.46 -9.42,-39.3 -2.58,-15 -4.57,-30.78 -6.01,-47.52 -1.42,-16.57 -2.28,-33.77 -2.86,-51.3 -0.57,-17.68 -0.86,-34.73 -0.86,-51.46l-24.28 -2.21z"/>
   <path class="fil4" d="M517 596.38c-16.29,33.62 -35.45,64.41 -57.46,92.35 -21.73,27.78 -45.46,51.93 -70.32,72.14 -25.15,20.21 -50.88,36 -77.75,47.2 -80.59,33.96 -142.44,15.54 -171.23,-36.31 -19.72,-35.52 -29.44,-87.92 -29.44,-157.38 0,-35.04 0,-65.99 0,-92.82 0,-26.68 0.29,-53.51 0.86,-80.35 0.58,-26.84 0.58,-35.04 -0.29,-24.94 -0.86,10.26 -1.42,19.41 -1.99,27.78 0,2.05 -0.29,5.68 -0.86,10.73 -0.29,5.21 1.72,3 6.29,-6.47 4.57,-9.47 10.57,-19.26 18.28,-29.52 7.44,-10.26 17.15,-19.57 28.87,-27.94 40.32,-28.78 129.33,-40.28 182.08,-20.05 14.29,5.37 21.44,12.47 21.44,21.47l-67.74 268.84 10.86 -0.47c24.86,-31.42 47.74,-63.31 68.89,-95.51 20.87,-32.2 39.15,-58.72 54.59,-79.4 15.15,-20.68 30.02,-38.68 44.31,-53.99 14.29,-15.47 29.73,-28.26 46.59,-38.52 16.57,-10.11 35.44,-17.68 56.6,-22.89 20.87,-5.05 45.73,-7.57 74.88,-7.57 24.59,0 43.45,2.68 56.6,8.04 12.87,5.37 19.45,12.63 19.45,21.47l-77.76 268.84 12.58 -0.47 208.38 -265.52c6.86,-8.68 21.44,-16.26 43.73,-22.89 22.29,-6.62 48.89,-9.94 79.47,-9.94 31.72,0 57.46,3.63 77.18,10.89 19.43,7.26 29.15,16.57 29.15,27.94 0,8.69 -2.57,17.84 -8,27.78 -19.89,37.87 -53.97,67.24 -82.03,102.61 -13.16,16.73 -23.44,29.04 -31.44,37.1 -9.44,9.16 -17.73,17.84 -25.15,25.89 -51.21,46.4 -163.89,139.22 -228.4,183.27 -22.01,14.84 -44.02,26.36 -66.32,34.73 -22,8.37 -44.31,12.47 -66.6,12.47 -7.71,0 -14.57,-3.31 -20.29,-9.95 -5.72,-6.63 -10.57,-15.62 -14.58,-26.84 -4,-11.2 -7.15,-24.46 -9.43,-39.3 -2.58,-15 -4.57,-30.78 -6.01,-47.52 -1.42,-16.57 -2.28,-33.77 -2.86,-51.3 -0.57,-17.68 -0.86,-34.73 -0.86,-51.46l-24.29 -2.21z"/>
  </g>
 </g>
</svg>
