<?xml version="1.0" encoding="UTF-8"?>
<!DOCTYPE svg PUBLIC "-//W3C//DTD SVG 1.1//EN" "http://www.w3.org/Graphics/SVG/1.1/DTD/svg11.dtd">
<!-- Creator: CorelDRAW -->
<svg xmlns="http://www.w3.org/2000/svg" xml:space="preserve" width="84.8726mm" height="13.0068mm" version="1.1" style="shape-rendering:geometricPrecision; text-rendering:geometricPrecision; image-rendering:optimizeQuality; fill-rule:evenodd; clip-rule:evenodd"
viewBox="0 0 2276.9 348.94"
 xmlns:xlink="http://www.w3.org/1999/xlink"
 xmlns:xodm="http://www.corel.com/coreldraw/odm/2003">
 <defs>
  <style type="text/css">
   <![CDATA[
    .fil5 {fill:#50AAD8;fill-rule:nonzero}
    .fil6 {fill:white;fill-rule:nonzero}
    .fil0 {fill:url(#id0)}
    .fil4 {fill:url(#id1)}
    .fil2 {fill:url(#id2)}
    .fil3 {fill:url(#id3)}
    .fil1 {fill:url(#id4)}
   ]]>
  </style>
  <linearGradient id="id0" gradientUnits="userSpaceOnUse" x1="48.05" y1="296.07" x2="296.31" y2="57.44">
   <stop offset="0" style="stop-opacity:1; stop-color:#2B569C"/>
   <stop offset="1" style="stop-opacity:1; stop-color:#5FCBEF"/>
  </linearGradient>
  <linearGradient id="id1" gradientUnits="userSpaceOnUse" xlink:href="#id0" x1="63.43" y1="165.67" x2="287.12" y2="398.4">
  </linearGradient>
  <linearGradient id="id2" gradientUnits="userSpaceOnUse" x1="157.29" y1="191.06" x2="296.3" y2="57.45">
   <stop offset="0" style="stop-opacity:1; stop-color:#5FCBEF"/>
   <stop offset="1" style="stop-opacity:1; stop-color:#2B569C"/>
  </linearGradient>
  <linearGradient id="id3" gradientUnits="userSpaceOnUse" xlink:href="#id2" x1="58.34" y1="195.05" x2="280.96" y2="337.33">
  </linearGradient>
  <linearGradient id="id4" gradientUnits="userSpaceOnUse" xlink:href="#id2" x1="84.23" y1="262.25" x2="161.44" y2="188.02">
  </linearGradient>
 </defs>
 <g id="Capa_x0020_1">
  <metadata id="CorelCorpID_0Corel-Layer"/>
  <path class="fil0" d="M172.18 264.9c-48.68,0 -88.14,-39.46 -88.14,-88.14 0,-48.68 39.46,-88.14 88.14,-88.14 48.68,0 88.14,39.46 88.14,88.14 0,48.68 -39.46,88.14 -88.14,88.14zm0 -260.31c-95.09,0 -172.18,77.09 -172.18,172.18 0,95.09 77.09,172.18 172.18,172.18 95.09,0 172.17,-77.09 172.17,-172.18 0,-95.09 -77.08,-172.18 -172.17,-172.18z"/>
  <path class="fil1" d="M59.63 201.17c0,48.68 39.46,88.14 88.14,88.14 30.58,0 57.51,-15.58 73.32,-39.22 -14,9.35 -30.81,14.82 -48.91,14.82 -48.68,0 -88.14,-39.46 -88.14,-88.14 0,-18.1 5.46,-34.92 14.82,-48.91 -23.65,15.8 -39.22,42.74 -39.22,73.32z"/>
  <path class="fil2" d="M172.18 4.59c-53.76,0 -101.75,24.65 -133.33,63.25 29.68,-24.28 67.59,-38.85 108.92,-38.85 95.09,0 172.18,77.09 172.18,172.18 0,41.33 -14.58,79.25 -38.85,108.93 38.6,-31.58 63.25,-79.57 63.25,-133.33 0,-95.09 -77.08,-172.18 -172.17,-172.18z"/>
  <path class="fil3" d="M332.32 285.01c-49.19,-70.68 -113.74,-80.19 -188.68,-45.12 -58.25,27.26 -117.53,4.4 -130,-9.59 27.29,65.36 88.07,96.78 161.57,86.74l9.68 -1.33c2.79,-0.38 5.58,-0.91 8.3,-1.64 22.21,-6 39.95,-14.26 50.32,-19.99 51.4,-28.42 88.82,-9.06 88.82,-9.06z"/>
  <path class="fil4" d="M359.46 328.87c-72.09,-86.16 -125.02,-94.03 -209.69,-66.71 -76.96,24.84 -132.75,-24.35 -143.99,-41.07 19.56,73.61 86.63,127.85 166.39,127.85l10.51 0c3.03,0 6.07,-0.15 9.08,-0.54 24.54,-3.16 44.63,-9.37 56.52,-13.97 58.9,-22.8 111.19,-5.56 111.19,-5.56z"/>
  <path class="fil5" d="M1719.16 61.98c0,3.71 -0.89,9.24 -2.71,16.55 -1.77,7.31 -3.98,15.72 -6.7,25.29 -2.71,9.52 -5.59,19.92 -8.74,31.1 -3.1,11.18 -6.03,22.58 -8.69,34.09 -2.71,11.51 -4.98,22.86 -6.75,33.98 -1.77,11.18 -2.66,21.53 -2.66,31.05 0,7.8 0.5,15.05 1.55,21.81 1,6.75 2.6,12.67 4.76,17.65 2.16,4.98 4.87,8.91 8.08,11.79 3.26,2.82 7.08,4.26 11.51,4.26 4.43,0 8.69,-1.33 12.84,-3.93 4.15,-2.66 8.19,-6.31 12.07,-10.9 3.87,-4.59 7.64,-10.13 11.18,-16.49 3.54,-6.37 6.97,-13.28 10.29,-20.7 3.26,-7.42 6.36,-15.22 9.3,-23.41 2.88,-8.19 5.64,-16.44 8.24,-24.79 9.08,-29.44 17.1,-62.92 24.13,-100.39 1.27,-6.03 2.88,-11.12 4.65,-15.16 1.82,-4.1 3.93,-7.31 6.47,-9.74 2.49,-2.43 5.42,-4.09 8.75,-5.09 3.32,-1 7.14,-1.49 11.51,-1.49 4.09,0 7.53,0.39 10.13,1.11 2.66,0.78 4.76,1.83 6.36,3.1 1.55,1.27 2.66,2.88 3.32,4.71 0.61,1.82 0.94,3.87 0.94,6.14 0,0.77 -0.45,3.93 -1.27,9.46 -0.89,5.59 -1.99,12.73 -3.32,21.42 -1.38,8.69 -2.82,18.54 -4.37,29.55 -1.61,11.01 -3.04,22.3 -4.37,33.93 -1.38,11.62 -2.49,23.08 -3.38,34.42 -0.83,11.35 -1.27,21.75 -1.27,31.27 0,9.68 0.33,18.48 1.05,26.29 0.72,7.86 1.88,14.5 3.54,20.03 1.66,5.48 3.87,9.68 6.59,12.62 2.66,2.93 6.03,4.37 10.02,4.37 6.86,0 13.17,-2.71 18.82,-8.08 5.64,-5.42 10.79,-12.62 15.5,-21.64 4.71,-9.02 8.91,-19.48 12.62,-31.38 3.71,-11.9 7.36,-27.4 11.01,-46.49 3.6,-19.15 5.37,-28.67 5.37,-28.72 0,0 1.27,-10.4 3.82,-31.27 2.49,-20.81 4.21,-35.09 5.15,-42.84 0.94,-7.75 1.66,-13.78 2.21,-18.15 0.33,-4.76 1.44,-8.58 3.26,-11.51 1.83,-2.88 4.15,-5.15 6.98,-6.7 2.77,-1.6 5.97,-2.66 9.57,-3.15 3.6,-0.5 7.25,-0.77 11.02,-0.77 2.93,0 5.64,0.28 8.02,0.83 2.44,0.55 4.48,1.44 6.25,2.82 1.77,1.33 3.1,3.1 4.04,5.31 0.94,2.21 1.44,5.04 1.44,8.52 0,9.57 -0.94,20.14 -2.77,31.65 -1.83,11.51 -4.15,23.14 -6.97,34.7 -2.77,11.62 -4.54,23.08 -5.2,34.26 -0.66,11.18 -2.93,22.03 -6.75,32.43 -3.87,10.41 -6.48,18.93 -7.86,25.57 -1.38,6.64 -2.1,11.01 -2.1,13.12 0,5.15 0.61,9.57 1.77,13.17 1.22,3.65 2.82,6.64 4.82,9.02 1.99,2.38 4.37,4.09 7.14,5.15 2.77,1.05 5.7,1.6 8.8,1.6 3.15,0 6.37,-0.72 9.69,-2.21 3.26,-1.44 6.47,-3.48 9.46,-6.03 3.04,-2.6 5.81,-5.7 8.36,-9.35 2.55,-3.6 4.71,-7.64 6.42,-12.06l2.77 33.32c-8.03,8.52 -16.27,15.28 -24.74,20.2 -8.47,4.93 -16.49,7.36 -23.91,7.36 -3.6,0 -6.92,-0.55 -10.07,-1.6 -3.1,-1.05 -5.92,-2.66 -8.3,-4.87 -2.44,-2.21 -4.48,-5.09 -6.09,-8.58 -1.6,-3.54 -2.77,-7.69 -3.37,-12.51 -5.42,9.24 -11.18,17.55 -17.38,24.9 -6.2,7.42 -12.78,13.72 -19.76,18.93 -6.92,5.2 -14.22,9.19 -21.81,12.01 -7.58,2.82 -15.44,4.26 -23.52,4.26 -10.24,0 -18.93,-2.71 -26.07,-8.08 -7.2,-5.42 -13.01,-12.79 -17.49,-22.08 -4.48,-9.3 -7.69,-20.2 -9.74,-32.76 -2.05,-12.51 -3.1,-25.9 -3.1,-40.01 0,-5.2 0.28,-10.07 0.83,-14.61 0.5,-4.54 0.94,-8.58 1.27,-12.18 -3.87,24.68 -8.75,45.27 -14.61,61.87 -5.92,16.6 -12.79,29.89 -20.75,39.96 -7.91,10.07 -16.94,17.21 -27.17,21.47 -10.18,4.26 -21.47,6.42 -33.87,6.42 -7.14,0 -13.95,-2.32 -20.42,-7.03 -6.47,-4.71 -12.17,-11.73 -17.1,-20.98 -4.93,-9.3 -8.86,-20.97 -11.79,-34.92 -2.99,-14 -4.48,-30.33 -4.48,-49.03 0,-11.4 0.66,-23.19 1.94,-35.2 1.33,-12.06 3.15,-24.13 5.59,-36.2 2.44,-12.12 5.42,-24.13 9.02,-35.97 3.54,-11.9 7.58,-23.46 12.12,-34.7 2.71,-6.25 5.42,-11.13 8.08,-14.67 2.71,-3.49 5.48,-6.09 8.3,-7.75 2.82,-1.66 5.64,-2.66 8.47,-2.99 2.88,-0.33 5.76,-0.5 8.69,-0.5 2.38,0 4.54,0.17 6.48,0.5 1.94,0.33 3.6,1 4.93,2.05 1.38,1.05 2.38,2.55 3.1,4.43 0.67,1.94 1.05,4.54 1.05,7.86zm319.44 249.49c-10.07,0 -18.93,-1.88 -26.51,-5.59 -7.58,-3.76 -13.89,-8.8 -18.93,-15.11 -5.04,-6.31 -8.86,-13.61 -11.4,-21.92 -2.49,-8.3 -3.76,-16.99 -3.76,-26.12 0,-5.98 1.11,-13.12 3.38,-21.36 2.27,-8.3 4.59,-15.66 7.03,-22.03 2.44,-6.42 5.48,-12.56 9.13,-18.37 3.65,-5.81 7.91,-10.96 12.84,-15.39 4.87,-4.43 10.41,-7.97 16.44,-10.57 6.09,-2.6 12.84,-3.93 20.31,-3.93 6.03,0 11.68,1 16.88,2.93 5.26,1.94 9.74,4.65 13.61,8.19 3.87,3.48 6.86,7.75 9.02,12.73 2.16,4.98 3.26,10.57 3.26,16.71 0,6.59 -2.22,13.89 -6.59,22.08 -4.43,8.13 -9.57,15.11 -15.44,20.92 -5.87,5.81 -12.84,11.02 -20.92,15.55 -8.13,4.54 -16.88,8.08 -26.34,10.63 1.66,2.88 3.26,5.26 4.81,7.14 1.61,1.94 3.21,3.38 4.82,4.43 1.66,1.05 3.38,1.82 5.15,2.27 1.83,0.39 3.76,0.61 5.81,0.61 6.47,0 13.34,-1.27 20.53,-3.82 7.2,-2.55 14.17,-5.7 20.98,-9.52 6.81,-3.82 13.23,-7.97 19.31,-12.45 6.03,-4.48 11.18,-8.74 15.39,-12.78l20.92 21.31c-9.52,10.07 -19.59,19.04 -30.33,26.79 -4.65,3.32 -9.63,6.64 -15,9.85 -5.31,3.21 -10.96,6.09 -16.82,8.58 -5.92,2.49 -12.01,4.48 -18.32,5.98 -6.36,1.49 -12.78,2.27 -19.26,2.27zm-21.75 -77.15c3.93,0 8.19,-0.94 12.84,-2.93 4.65,-1.94 8.91,-4.43 12.9,-7.53 3.98,-3.04 7.91,-7.2 11.73,-12.4 3.82,-5.15 5.7,-9.46 5.7,-12.84 0,-4.76 -0.89,-8.63 -2.71,-11.73 -1.77,-3.04 -3.98,-4.59 -6.59,-4.59 -4.7,0 -8.74,0.83 -12.06,2.55 -3.32,1.66 -6.09,3.87 -8.3,6.59 -2.27,2.71 -4.04,5.75 -5.42,9.19 -1.33,3.43 -2.93,7.69 -4.71,12.79 -1.82,5.09 -2.82,9.24 -3.04,12.51 -0.22,3.32 -0.33,6.09 -0.33,8.41zm142.29 -53.96c6.03,-7.42 11.57,-13.39 16.6,-17.88 5.04,-4.48 10.01,-6.75 15,-6.75 6.36,0 12.06,1.38 16.99,4.15 4.98,2.77 9.19,6.48 12.67,11.07 3.43,4.59 6.09,9.85 7.91,15.83 1.83,5.98 2.77,12.23 2.77,18.71 0,5.59 -0.22,10.85 -0.67,15.83 -0.39,4.93 -1.16,9.79 -2.32,14.55 -1.11,4.71 -2.66,9.46 -4.65,14.11 -1.99,4.7 -4.59,9.57 -7.86,14.55 3.93,-2.27 7.86,-4.48 11.84,-6.7 4.04,-2.16 8.03,-4.59 12.12,-7.2 4.04,-2.6 8.14,-5.53 12.23,-8.74 4.1,-3.21 8.3,-7.03 12.62,-11.4l12.51 27.01c-5.98,5.42 -11.84,10.18 -17.77,14.22 -5.87,3.98 -11.95,7.53 -18.15,10.52 -6.2,2.99 -12.73,5.59 -19.48,7.75 -6.75,2.16 -13.89,4.15 -21.42,5.87 -1.88,1.82 -4.37,3.71 -7.58,5.53 -3.21,1.83 -6.36,3.54 -9.52,5.04 -3.6,1.71 -7.47,3.43 -11.57,5.04l-4.09 0c-16.94,0 -26.12,-0.22 -27.51,-0.67 -13.06,-3.54 -21.25,-6.36 -24.63,-8.47 -6.14,-3.98 -12.12,-8.08 -17.88,-12.34 0.33,-8.75 1,-18.6 1.94,-29.61 0.78,-9.63 1.94,-21.36 3.43,-35.2 2.21,-20.42 4.26,-35.36 6.25,-44.88 1,-10.74 2.32,-22.52 3.93,-35.53 1.77,-9.9 3.98,-22.3 6.59,-37.19 2.66,-14.89 6.14,-28.61 10.57,-41.23 4.37,-12.62 9.24,-23.85 14.61,-33.71 5.37,-9.85 11.24,-17.77 17.54,-23.74 6.37,-5.92 13.23,-8.91 20.59,-8.91 8.25,0 14.83,1.38 19.81,4.21 4.98,2.82 8.85,6.64 11.57,11.46 2.71,4.82 4.48,10.46 5.37,16.99 0.83,6.48 1.27,13.39 1.27,20.75 0,10.24 -1.94,20.81 -5.76,31.66 -3.87,10.9 -8.85,21.75 -15.05,32.54 -6.14,10.85 -13.06,21.42 -20.7,31.77 -7.58,10.35 -15.17,20.09 -22.75,29.22l2.6 1.77zm14.55 11.57c-3.82,0 -7.64,0.77 -11.4,2.38 -3.82,1.6 -7.36,4.09 -10.63,7.47 -3.26,3.37 -6.14,7.69 -8.63,13.01 -4.87,10.24 -6.75,16.55 -5.53,18.87 0,0.22 -0.78,6.7 -2.27,19.43 -0.61,4.82 -1.11,9.13 -1.49,12.84 -0.5,4.37 -1,8.41 -1.38,12.23 3.6,1.05 7.14,1.99 10.74,2.77 3.15,0.61 6.48,0.66 9.96,0.16 3.43,-0.55 6.75,-0.83 9.9,-0.83 3.71,0 7.09,-1.11 10.13,-3.26 3.04,-2.21 5.76,-5.09 8.14,-8.75 2.38,-3.65 4.43,-7.86 6.2,-12.51 1.72,-4.7 3.15,-9.57 4.21,-14.67 1.11,-5.04 1.88,-10.07 2.44,-15.05 0.55,-4.93 0.83,-9.52 0.83,-13.67 0,-2.71 -0.28,-5.31 -0.89,-7.75 -0.61,-2.44 -1.71,-4.59 -3.26,-6.48 -1.6,-1.83 -3.76,-3.32 -6.53,-4.48 -2.77,-1.16 -6.25,-1.71 -10.52,-1.71zm15.88 -147.77c0,-0.39 -0.06,-1.33 -0.22,-2.71 -0.17,-1.44 -0.55,-2.88 -1.16,-4.43 -0.55,-1.49 -1.38,-2.82 -2.49,-4.04 -1.05,-1.16 -2.55,-1.77 -4.37,-1.77 -2.16,0 -4.37,1.55 -6.7,4.65 -2.32,3.04 -4.59,7.25 -6.86,12.51 -2.21,5.26 -4.43,11.29 -6.59,18.15 -2.16,6.92 -4.26,14.11 -6.31,21.64 -2.05,7.53 -3.87,15.22 -5.48,23.02 -1.66,7.8 -3.21,15.22 -4.65,22.14 -1.44,6.92 -2.71,13.28 -3.93,19.04 -1.22,5.75 -2.16,10.46 -2.93,14.06 2.93,-5.65 6.2,-11.51 9.79,-17.6 3.6,-6.09 7.25,-12.4 10.9,-18.93 3.65,-6.53 7.25,-13.28 10.74,-20.14 3.48,-6.86 6.64,-13.89 9.52,-21.03 2.88,-7.2 5.2,-14.5 7.08,-21.92 1.88,-7.42 3.1,-14.94 3.65,-22.64z"/>
  <path class="fil6" d="M525.76 246.63c-18.17,8.9 -37.08,13.72 -52.65,13.72 -19.65,0 -31.52,-15.2 -31.52,-40.05 0,-25.96 11.87,-41.9 31.89,-41.9 13.35,0 27.07,1.85 47.83,9.64l18.17 -42.64c-26.7,-15.2 -50.06,-19.65 -75.64,-19.65 -51.91,0 -88.25,33 -88.25,94.55 0,60.07 39.3,92.7 87.88,92.7 34.85,0 57.1,-8.16 82.31,-26.7l-20.02 -39.67zm222.91 -0.74c-22.99,10.75 -38.93,15.57 -63.4,15.57 -18.17,0 -27.44,-7.04 -30.78,-24.1l111.61 0c1.11,-10.38 1.48,-16.69 1.48,-24.84 0,-55.99 -33,-86.76 -85.28,-86.76 -58.21,0 -92.7,33.37 -92.7,94.92 0,60.44 35.6,92.33 92.7,92.33 30.78,0 56.36,-8.53 85.28,-28.92l-18.91 -38.19zm-94.55 -44.12c2.97,-20.39 12.98,-30.03 28.18,-30.03 17.06,0 26.33,10.38 27.07,30.03l-55.25 0zm192.87 -17.43c25.21,-5.19 44.49,-7.79 57.47,-7.79 18.17,0 22.62,7.79 22.62,23.36l-31.52 0c-50.8,0 -76.38,17.8 -76.38,55.99 0,44.13 21.5,57.1 58.96,57.1 19.65,0 35.22,-8.9 48.94,-24.47l0 21.13 66.37 0 0 -109.75c0,-52.28 -22.62,-74.16 -76.38,-74.16 -18.17,0 -36.34,2.23 -80.09,14.09l10.01 44.5zm80.09 47.09l0 22.62c-7.04,5.93 -15.57,10.75 -26.33,10.75 -11.5,0 -19.28,-6.67 -19.28,-17.42 0,-11.87 8.53,-15.95 23.36,-15.95l22.25 0zm197.69 -102.34l-67.11 0 0 180.57 67.11 0 0 -103.82c8.9,-10.01 18.54,-16.69 30.03,-16.69 13.35,0 16.69,5.93 16.69,24.84l0 95.66 67.11 0 0 -114.94c0,-48.94 -14.46,-68.59 -52.28,-68.59 -20.39,0 -37.82,8.53 -61.55,27.07l0 -24.1zm178.04 -52.28c0,22.62 18.17,34.11 37.82,34.11 19.65,0 37.82,-11.5 37.82,-34.11 0,-22.99 -18.17,-34.48 -37.82,-34.48 -19.65,0 -37.82,11.49 -37.82,34.48zm71.56 232.85l0 -180.57 -67.11 0 0 180.57 67.11 0zm209.56 -63.03c-18.17,8.9 -37.08,13.72 -52.65,13.72 -19.65,0 -31.52,-15.2 -31.52,-40.05 0,-25.96 11.87,-41.9 31.89,-41.9 13.35,0 27.07,1.85 47.83,9.64l18.17 -42.64c-26.7,-15.2 -50.06,-19.65 -75.64,-19.65 -51.91,0 -88.25,33 -88.25,94.55 0,60.07 39.3,92.7 87.88,92.7 34.85,0 57.1,-8.16 82.31,-26.7l-20.02 -39.67z"/>
 </g>
</svg>
